<svg width="188" height="178" viewBox="0 0 188 178" fill="none" xmlns="http://www.w3.org/2000/svg">
<g clip-path="url(#clip0_4_25)">
<ellipse cx="94" cy="89" rx="94" ry="89" fill="black"/>
<path d="M72 62H95.8806V42.5M95.8806 23V42.5M95.8806 42.5H122V23" stroke="#A48282" stroke-width="3"/>
<rect x="79" y="82" width="12" height="34" fill="#A48282"/>
<rect x="76" y="131" width="58" height="15" fill="#A48282"/>
<path d="M109 93.6107C120.849 71.349 132.926 58.1727 137.483 54.3673L146.598 45.0916C151.156 38.1943 159.359 27.3964 155.713 39.3835C152.067 51.3705 116.975 120.724 155.713 64.3565L146.598 93.6107C155.143 90.5188 167.79 87.3317 150.016 99.3188C132.243 111.306 146.408 109.546 155.713 107.167L120.393 130" stroke="#40412E"/>
<g filter="url(#filter0_d_4_25)">
<path d="M76 93.6107C63.9139 71.349 51.5954 58.1727 46.9469 54.3673L37.6499 45.0916C33.0014 38.1943 24.634 27.3964 28.3529 39.3835C32.0717 51.3705 67.8651 120.724 28.3529 64.3565L37.6499 93.6107C28.9339 90.5188 16.0343 87.3317 34.1635 99.3188C52.2926 111.306 37.8435 109.546 28.3529 107.167L64.3787 130" stroke="#40412E"/>
</g>
<rect x="59" y="32" width="17" height="114" fill="#A48282"/>
<rect x="79" y="70" width="55" height="12" fill="#A48282"/>
<rect x="79" y="116" width="55" height="12" fill="#A48282"/>
<rect x="91" y="82" width="43" height="34" fill="black"/>
<rect width="58" height="3" transform="matrix(1 0 0 -1 76 131)" fill="black"/>
</g>
<defs>
<filter id="filter0_d_4_25" x="20.5" y="33.5" width="59.9394" height="104.922" filterUnits="userSpaceOnUse" color-interpolation-filters="sRGB">
<feFlood flood-opacity="0" result="BackgroundImageFix"/>
<feColorMatrix in="SourceAlpha" type="matrix" values="0 0 0 0 0 0 0 0 0 0 0 0 0 0 0 0 0 0 127 0" result="hardAlpha"/>
<feOffset dy="4"/>
<feGaussianBlur stdDeviation="2"/>
<feComposite in2="hardAlpha" operator="out"/>
<feColorMatrix type="matrix" values="0 0 0 0 0 0 0 0 0 0 0 0 0 0 0 0 0 0 0.25 0"/>
<feBlend mode="normal" in2="BackgroundImageFix" result="effect1_dropShadow_4_25"/>
<feBlend mode="normal" in="SourceGraphic" in2="effect1_dropShadow_4_25" result="shape"/>
</filter>
<clipPath id="clip0_4_25">
<rect width="188" height="178" fill="white"/>
</clipPath>
</defs>
</svg>
